<svg height="512pt" viewBox="0 0 512 512.01535" width="512pt" xmlns="http://www.w3.org/2000/svg"><path d="m469.324219 162.148438v324.265624c-.027344 9.414063-7.652344 17.039063-17.066407 17.066407h-392.53125c-9.414062-.027344-17.039062-7.652344-17.066406-17.066407v-324.265624l200.53125-120.320313 12.800782-7.679687zm0 0" fill="#dfc49c"/><path d="m443.726562 162.148438v324.265624c-.027343 9.414063-7.652343 17.039063-17.066406 17.066407h-366.933594c-9.414062-.027344-17.039062-7.652344-17.066406-17.066407v-324.265624l200.53125-120.320313zm0 0" fill="#ffe0b2"/><path d="m247.117188 53.695312c5.449218-3.316406 12.296874-3.316406 17.75 0l210.925781 128.410157c4.253906 2.640625 9.410156 3.402343 14.246093 2.097656 4.835938-1.300781 8.914063-4.550781 11.265626-8.96875l.035156-.0625c4.472656-8.410156 1.660156-18.847656-6.429688-23.867187l-230.035156-140.261719c-5.453125-3.324219-12.3125-3.324219-17.769531 0l-230.027344 140.261719c-8.09375 5.019531-10.90625 15.457031-6.429687 23.867187l.03125.0625c2.351562 4.417969 6.433593 7.667969 11.265624 8.96875 4.835938 1.304687 9.996094.542969 14.25-2.097656zm0 0" fill="#02a9f4"/><path d="m213.324219 324.28125v179.199219h-119.464844v-179.199219c.011719-4.707031 3.824219-8.519531 8.53125-8.53125h102.402344c4.707031.011719 8.519531 3.824219 8.53125 8.53125zm0 0" fill="#4527a0"/><path d="m187.726562 324.28125v179.199219h-93.867187v-179.199219c.011719-4.707031 3.824219-8.519531 8.53125-8.53125h76.800781c4.707032.011719 8.519532 3.824219 8.535156 8.53125zm0 0" fill="#673ab7"/><path d="m136.523438 349.882812h34.136718c4.710938 0 8.53125 3.820313 8.53125 8.53125v17.066407c0 4.714843-3.820312 8.535156-8.53125 8.535156h-34.136718c-4.710938 0-8.53125-3.820313-8.53125-8.535156v-17.066407c0-4.710937 3.820312-8.53125 8.53125-8.53125zm0 0" fill="#90bae1"/><path d="m341.324219 196.28125c-.019531 17.257812-10.421875 32.804688-26.359375 39.410156-15.941406 6.609375-34.292969 2.976563-46.515625-9.203125-3.253907-3.390625-7.753907-5.308593-12.457031-5.308593-4.703126 0-9.203126 1.917968-12.460938 5.308593-1.804688 1.804688-3.773438 3.433594-5.886719 4.867188-14.433593 10.007812-33.523437 10.148437-48.105469.355469-14.582031-9.792969-21.671874-27.519532-17.867187-44.664063 3.804687-17.148437 17.726563-30.214844 35.082031-32.917969 3.648438-.578125 6.507813-3.4375 7.082032-7.085937 1.675781-11.007813 7.625-20.910157 16.554687-27.5625h.085937c11.96875-8.988281 27.78125-11.03125 41.644532-5.386719 13.859375 5.648438 23.742187 18.15625 26.023437 32.949219.578125 3.648437 3.4375 6.507812 7.085938 7.085937 20.78125 3.222656 36.109375 21.121094 36.09375 42.152344zm0 0" fill="#549414"/><path d="m315.726562 204.816406c-.015624 13.425782-6.335937 26.066406-17.066406 34.132813-11.320312 0-22.179687-4.480469-30.210937-12.460938-3.253907-3.390625-7.753907-5.308593-12.457031-5.308593-4.703126 0-9.203126 1.917968-12.460938 5.308593-1.804688 1.804688-3.773438 3.433594-5.886719 4.867188-6.671875-3.164063-14.625-1.6875-19.710937 3.667969-1.4375 1.421874-2.976563 2.734374-4.609375 3.925781-22.277344-.011719-40.796875-17.160157-42.519531-39.371094-1.71875-22.210937 13.9375-42.011719 35.949218-45.449219 3.648438-.578125 6.507813-3.4375 7.082032-7.085937 1.675781-11.007813 7.625-20.910157 16.554687-27.5625h.085937c21.015626-.007813 38.886719 15.328125 42.070313 36.097656.574219 3.648437 3.433594 6.507813 7.082031 7.082031 20.78125 3.226563 36.109375 21.125 36.097656 42.15625zm0 0" fill="#60a917"/><path d="m401.058594 324.28125v93.867188h-119.46875v-93.867188c.015625-4.707031 3.828125-8.519531 8.535156-8.53125h102.398438c4.707031.011719 8.519531 3.824219 8.535156 8.53125zm0 0" fill="#00838f"/><path d="m375.457031 324.28125v93.867188h-93.867187v-93.867188c.015625-4.707031 3.828125-8.519531 8.535156-8.53125h76.800781c4.707031.011719 8.519531 3.824219 8.53125 8.53125zm0 0" fill="#00bcd4"/><path d="m452.257812 512.015625h-392.53125c-14.132812-.015625-25.585937-11.46875-25.601562-25.601563v-308.222656c0-4.710937 3.820312-8.535156 8.535156-8.535156 4.710938 0 8.53125 3.824219 8.53125 8.535156v308.222656c.003906 4.710938 3.824219 8.53125 8.535156 8.535157h392.53125c4.710938-.003907 8.53125-3.824219 8.535157-8.535157v-308.222656c0-4.710937 3.820312-8.535156 8.53125-8.535156 4.714843 0 8.535156 3.824219 8.535156 8.535156v308.222656c-.015625 14.132813-11.46875 25.585938-25.601563 25.601563zm0 0"/><path d="m26.640625 193.351562c-11.894531-.015624-22.34375-7.910156-25.605469-19.347656-3.265625-11.441406 1.441406-23.660156 11.539063-29.949218l230.09375-140.296876c8.175781-5.011718 18.472656-5.011718 26.648437.003907l230.035156 140.253906c8.117188 5.003906 12.945313 13.960937 12.65625 23.492187-.285156 9.535157-5.640624 18.1875-14.042968 22.695313s-18.574219 4.1875-26.671875-.847656l-210.859375-128.375c-2.726563-1.664063-6.15625-1.664063-8.882813 0l-210.925781 128.414062c-4.203125 2.59375-9.046875 3.964844-13.984375 3.957031zm229.351563-176.269531c-1.566407.003907-3.101563.433594-4.4375 1.25l-230.039063 140.257813c-2.90625 1.816406-4.621094 5.046875-4.5 8.472656s2.0625 6.527344 5.089844 8.132812c3.023437 1.609376 6.679687 1.480469 9.585937-.339843l210.988282-128.449219h.007812c8.171875-4.992188 18.445312-4.992188 26.617188 0l210.917968 128.414062c2.261719 1.425782 5.015625 1.839844 7.597656 1.144532 2.558594-.679688 4.714844-2.398438 5.949219-4.742188 2.390625-4.449218.921875-9.988281-3.359375-12.671875l-229.976562-140.21875c-1.335938-.820312-2.875-1.25-4.441406-1.25zm0 0"/><path d="m213.324219 512.015625h-119.464844c-4.714844 0-8.535156-3.820313-8.535156-8.535156v-179.199219c.011719-9.421875 7.644531-17.054688 17.066406-17.066406h102.402344c9.417969.011718 17.054687 7.644531 17.066406 17.066406v179.199219c0 4.714843-3.820313 8.535156-8.535156 8.535156zm-110.933594-17.066406h102.402344v-170.667969h-102.402344zm0 0"/><path d="m170.660156 392.546875h-34.136718c-9.417969-.007813-17.054688-7.644531-17.066407-17.066406v-17.066407c.011719-9.417968 7.648438-17.054687 17.066407-17.066406h34.136718c9.417969.011719 17.054688 7.648438 17.066406 17.066406v17.066407c-.011718 9.421875-7.648437 17.058593-17.066406 17.066406zm-34.136718-34.132813v17.066407h34.144531l-.007813-17.066407zm0 0"/><path d="m136.523438 443.75c-4.710938 0-8.53125-3.820312-8.53125-8.535156v-17.066406c0-4.710938 3.820312-8.53125 8.53125-8.53125 4.714843 0 8.535156 3.820312 8.535156 8.53125v17.066406c0 4.714844-3.820313 8.535156-8.535156 8.535156zm0 0"/><path d="m145.058594 426.683594h-17.066406c-4.714844 0-8.535157-3.820313-8.535157-8.535156 0-4.710938 3.820313-8.53125 8.535157-8.53125h17.066406c4.710937 0 8.53125 3.820312 8.53125 8.53125 0 4.714843-3.820313 8.535156-8.53125 8.535156zm0 0"/><path d="m298.660156 247.480469c-13.570312.019531-26.59375-5.347657-36.210937-14.921875-1.671875-1.757813-3.984375-2.761719-6.410157-2.773438-2.425781-.011718-4.75.964844-6.4375 2.707032-15.691406 15.71875-39.730468 19.535156-59.519531 9.449218-19.789062-10.089844-30.820312-31.78125-27.316406-53.714844 3.503906-21.933593 20.746094-39.113281 42.691406-42.53125 3.886719-24.925781 25.355469-43.300781 50.585938-43.289062 25.226562.011719 46.675781 18.410156 50.535156 43.34375 26.414063 4.121094 45.203125 27.878906 43.128906 54.53125s-24.316406 47.214844-51.046875 47.199219zm-42.667968-34.835938c6.980468.011719 13.65625 2.84375 18.523437 7.84375 10.480469 10.453125 26.496094 12.964844 39.671875 6.226563 13.175781-6.734375 20.511719-21.191406 18.175781-35.804688-2.335937-14.613281-13.816406-26.058594-28.4375-28.347656-7.289062-1.160156-13.015625-6.859375-14.210937-14.144531-2.554688-16.632813-16.855469-28.917969-33.683594-28.9375-16.832031-.019531-31.160156 12.234375-33.757812 28.859375-1.15625 7.292968-6.859376 13.023437-14.148438 14.210937-14.617188 2.285157-26.101562 13.730469-28.433594 28.339844-2.335937 14.609375 5.007813 29.0625 18.183594 35.792969 13.179688 6.726562 29.191406 4.199218 39.65625-6.261719 4.859375-4.964844 11.511719-7.769531 18.460938-7.777344zm0 0"/><path d="m255.992188 281.617188c-4.714844 0-8.535157-3.824219-8.535157-8.535157v-51.199219c0-4.714843 3.820313-8.535156 8.535157-8.535156 4.710937 0 8.53125 3.820313 8.53125 8.535156v51.199219c0 4.710938-3.820313 8.535157-8.53125 8.535157zm0 0"/><path d="m273.058594 281.617188h-34.132813c-4.714843 0-8.535156-3.824219-8.535156-8.535157 0-4.710937 3.820313-8.535156 8.535156-8.535156h34.132813c4.710937 0 8.53125 3.824219 8.53125 8.535156 0 4.710938-3.820313 8.535157-8.53125 8.535157zm0 0"/><path d="m401.058594 426.683594h-119.46875c-4.710938 0-8.53125-3.820313-8.53125-8.535156v-93.867188c.011718-9.421875 7.644531-17.054688 17.066406-17.066406h102.398438c9.421874.011718 17.058593 7.644531 17.066406 17.066406v93.867188c0 4.714843-3.820313 8.535156-8.53125 8.535156zm-110.933594-17.066406h102.398438v-85.335938h-102.398438zm0 0"/><path d="m418.125 426.683594h-153.601562c-4.710938 0-8.53125-3.820313-8.53125-8.535156 0-4.710938 3.820312-8.53125 8.53125-8.53125h153.601562c4.710938 0 8.535156 3.820312 8.535156 8.53125 0 4.714843-3.824218 8.535156-8.535156 8.535156zm0 0"/><path d="m341.324219 426.683594c-4.710938 0-8.53125-3.820313-8.53125-8.535156v-102.398438c0-4.714844 3.820312-8.535156 8.53125-8.535156 4.714843 0 8.535156 3.820312 8.535156 8.535156v102.398438c0 4.714843-3.820313 8.535156-8.535156 8.535156zm0 0"/><path d="m366.925781 375.480469h-85.335937c-4.710938 0-8.53125-3.820313-8.53125-8.53125 0-4.714844 3.820312-8.535157 8.53125-8.535157h85.335937c4.710938 0 8.53125 3.820313 8.53125 8.535157 0 4.710937-3.820312 8.53125-8.53125 8.53125zm0 0"/></svg>